<svg width="134" height="22" viewBox="0 0 134 22" fill="none" xmlns="http://www.w3.org/2000/svg">
<path d="M24.928 1.10156C27.256 1.10156 29.1354 1.91694 30.5216 3.47432C31.9077 5.03169 32.6619 7.22914 32.6619 9.85467V12.1459C32.6619 14.7673 31.9566 16.924 30.546 18.5262C29.1354 20.1285 27.2967 20.899 24.9525 20.899C22.6083 20.899 20.7207 20.0836 19.3345 18.5262C17.9484 16.9689 17.1982 14.7673 17.1982 12.1459V9.85467C17.1982 7.22914 17.8995 5.07654 19.3101 3.47432C20.7207 1.8721 22.5797 1.10156 24.928 1.10156ZM28.6869 9.82613C28.6869 8.4726 28.3853 7.45337 27.7737 6.73176C27.1622 6.01015 26.2204 5.631 24.9199 5.631C23.6194 5.631 22.7102 5.98977 22.0987 6.73176C21.4871 7.47376 21.1814 8.4726 21.1814 9.82613V12.1459C21.1814 13.4994 21.4831 14.5186 22.0946 15.2647C22.7061 16.0108 23.6479 16.3451 24.9484 16.3451C26.249 16.3451 27.1581 15.9822 27.7696 15.2647C28.3812 14.5472 28.6829 13.528 28.6829 12.1459L28.6869 9.82613Z" fill="#333333" stroke="white" stroke-miterlimit="10"/>
<path d="M117.327 12.0479V9.53648C117.327 7.02511 118.053 4.95405 119.537 3.35183C120.222 2.58397 121.068 1.97576 122.014 1.57003C122.96 1.16431 123.983 0.970931 125.012 1.00353C127.051 1.00353 128.747 1.52945 130.039 2.63429C131.331 3.73913 131.405 4.86843 131.193 5.61451C131.107 6.0174 130.889 6.38013 130.574 6.64523C130.258 6.91034 129.864 7.06267 129.452 7.07811C128.779 7.02603 128.146 6.73713 127.666 6.26273C127.124 5.76535 126.211 5.51666 125.012 5.51666C124.498 5.49301 123.986 5.58223 123.51 5.77805C123.035 5.97386 122.608 6.27151 122.26 6.65004C121.604 7.36757 121.323 8.2808 121.323 9.50387V12.0438C121.26 13.1403 121.612 14.2203 122.309 15.0688C122.676 15.4627 123.125 15.771 123.625 15.9718C124.124 16.1726 124.662 16.261 125.2 16.2308C126.078 16.2369 126.951 16.0992 127.784 15.8231C128.021 15.713 128.229 15.6314 128.371 15.5458V12.1865C128.372 11.621 128.591 11.0777 128.983 10.6699L129.57 10.0869C129.799 9.84735 130.101 9.69059 130.429 9.64115C130.756 9.59172 131.091 9.65241 131.38 9.81371C131.688 9.99914 131.942 10.2627 132.115 10.5778C132.288 10.8928 132.375 11.2481 132.367 11.6075V16.9361C132.372 17.4094 132.23 17.8727 131.959 18.261C131.421 18.9786 130.573 19.5616 129.305 20.0834C128.006 20.585 126.621 20.8288 125.228 20.801C124.169 20.8324 123.117 20.6294 122.145 20.2065C121.174 19.7837 120.309 19.1513 119.61 18.3548C118.077 16.7444 117.327 14.6163 117.327 12.0479Z" fill="#333333" stroke="white" stroke-miterlimit="10"/>
<path d="M16.8191 2.23044C16.9725 2.52206 17.0624 2.84289 17.0827 3.17176C17.1031 3.50063 17.0536 3.83009 16.9374 4.13843L10.9443 19.5165C10.8427 19.8447 10.6411 20.1331 10.3678 20.3414C10.0945 20.5497 9.76301 20.6675 9.41955 20.6784H8.68978C8.34359 20.6651 8.00963 20.5468 7.73221 20.3393C7.45479 20.1318 7.24703 19.8448 7.13648 19.5165L1.1679 4.13843C1.0429 3.83292 0.986515 3.5037 1.00272 3.17401C1.01892 2.84432 1.10732 2.52221 1.26167 2.23044C1.39813 1.96475 1.60313 1.74036 1.85545 1.58052C2.10776 1.42067 2.39822 1.33117 2.69674 1.32129H3.35312C3.6952 1.33336 4.02513 1.45118 4.29747 1.65854C4.56981 1.8659 4.77116 2.15259 4.8738 2.47913L9.0404 13.1932L13.2029 2.47913C13.3139 2.15218 13.5213 1.86653 13.7979 1.65984C14.0744 1.45314 14.4071 1.33511 14.7521 1.32129H15.3881C15.6871 1.32708 15.9787 1.41495 16.2311 1.57529C16.4834 1.73563 16.6869 1.96227 16.8191 2.23044Z" fill="#333333" stroke="white" stroke-miterlimit="10"/>
<path d="M34.5661 1.32129H46.8335C47.7712 1.32129 48.5254 2.20598 48.5254 3.31082V3.8612C48.5254 4.96604 47.7712 5.85073 46.8335 5.85073H42.6954V18.6889C42.6954 19.7937 41.9208 20.6784 41.0035 20.6784H40.392C39.4543 20.6784 38.7001 19.7937 38.7001 18.6889V5.85073H34.5661C33.6243 5.85073 32.8701 4.96604 32.8701 3.8612V3.31082C32.8701 2.20598 33.6243 1.32129 34.5661 1.32129Z" fill="#333333" stroke="white" stroke-miterlimit="10"/>
<path d="M49.7686 18.6889V3.31082C49.7686 2.20598 50.5228 1.32129 51.4605 1.32129H61.2165C62.1542 1.32129 62.9084 2.20598 62.9084 3.31082V3.8612C62.9084 4.96604 62.1542 5.85073 61.2165 5.85073H53.7639V8.39063H60.0872C61.0249 8.39063 61.7791 9.27532 61.7791 10.3761V10.9591C61.7791 12.0639 61.0249 12.9445 60.0872 12.9445H53.7639V16.1204H61.2165C62.1542 16.1204 62.9084 17.0051 62.9084 18.11V18.6889C62.9084 19.7937 62.1542 20.6784 61.2165 20.6784H51.4605C50.535 20.6784 49.7686 19.7937 49.7686 18.6889Z" fill="#333333" stroke="white" stroke-miterlimit="10"/>
<path d="M79.9136 1.20748C81.8379 1.20748 83.4605 1.7334 84.7284 2.83824C85.0494 3.07232 85.3256 3.36234 85.5438 3.69439C85.7535 4.00233 85.8956 4.35114 85.961 4.71791C86.0263 5.08468 86.0134 5.46113 85.9229 5.82254C85.8292 6.22973 85.6031 6.59433 85.28 6.85919C84.9568 7.12406 84.5549 7.27422 84.1372 7.28614C83.4634 7.24783 82.8249 6.97194 82.3353 6.50745C81.6513 5.96222 80.7911 5.68663 79.9177 5.73284C79.0256 5.67682 78.1381 5.89904 77.3777 6.36884C77.1413 6.53599 76.9089 6.77653 76.9089 6.91922C76.9089 7.06191 76.9089 7.19645 77.2391 7.47368C77.5694 7.75091 78.295 8.19121 80.411 8.69675C82.3842 9.19413 83.8886 9.80159 84.9689 10.6007C85.6688 11.1141 86.2318 11.7915 86.6086 12.5735C86.9853 13.3554 87.1643 14.218 87.1297 15.0853C87.1555 15.9909 86.9486 16.888 86.5289 17.691C86.1093 18.4939 85.4908 19.1759 84.7325 19.6718C83.3297 20.5823 81.6831 21.0444 80.0114 20.9968C78.2654 21.034 76.5448 20.5745 75.0498 19.6718C74.7323 19.4783 74.4405 19.2454 74.1815 18.9787C73.9081 18.6879 73.7078 18.3362 73.5972 17.9527C73.4866 17.5691 73.4689 17.1648 73.5455 16.7731C73.6188 16.3351 73.8417 15.936 74.1762 15.6439C74.5107 15.3517 74.9362 15.1846 75.3801 15.1709C75.9682 15.1955 76.5394 15.3755 77.0353 15.6927C77.9366 16.2074 78.9616 16.4654 79.9992 16.4388C80.9155 16.4855 81.8247 16.2554 82.6084 15.7783C83.1506 15.4196 83.1506 15.1953 83.1506 15.0689C83.1576 14.9374 83.1287 14.8064 83.0669 14.6901C83.0052 14.5737 82.9129 14.4764 82.8 14.4085C82.4943 14.1883 81.6503 13.691 79.5385 13.108C77.5001 12.6146 76.0365 12.0072 75.0254 11.2611C74.3475 10.7653 73.8022 10.1102 73.4374 9.35365C73.0727 8.59713 72.8997 7.76246 72.9339 6.9233C72.9116 6.04002 73.1134 5.16547 73.5205 4.38127C73.9275 3.59707 74.5266 2.92876 75.2618 2.43871C76.6543 1.57203 78.2747 1.14313 79.9136 1.20748Z" fill="#333333" stroke="white" stroke-miterlimit="10"/>
<path d="M92.4133 3.43386V16.2476H98.9364C99.8537 16.2476 100.628 17.1322 100.628 18.2371V18.816C100.628 19.9208 99.8537 20.8015 98.9364 20.8015H90.1099C89.1722 20.8015 88.418 19.9208 88.418 18.816V3.43386C88.418 2.32902 89.1722 1.44434 90.1099 1.44434H90.7214C91.6632 1.44434 92.4133 2.32902 92.4133 3.43386Z" fill="#333333" stroke="white" stroke-miterlimit="10"/>
<path d="M101.558 13.8168V3.4044C101.558 2.29956 102.308 1.41895 103.25 1.41895H103.837C104.774 1.41895 105.553 2.29956 105.553 3.4044V13.8168C105.521 14.1523 105.565 14.4908 105.683 14.8066C105.801 15.1224 105.989 15.4071 106.234 15.6392C106.96 16.159 107.831 16.4386 108.725 16.4386C109.618 16.4386 110.489 16.159 111.216 15.6392C111.464 15.4089 111.656 15.1251 111.779 14.8094C111.901 14.4936 111.95 14.1542 111.921 13.8168V3.4044C111.921 2.29956 112.671 1.41895 113.613 1.41895H114.2C115.142 1.41895 115.892 2.29956 115.892 3.4044V13.8168C115.892 16.1366 115.142 18.0119 113.707 19.2554C112.291 20.3826 110.535 20.9963 108.725 20.9963C106.915 20.9963 105.159 20.3826 103.743 19.2554C102.312 17.9875 101.558 16.108 101.558 13.8168Z" fill="#333333" stroke="white" stroke-miterlimit="10"/>
<path d="M132.387 10.9638V11.449C132.403 11.8726 132.25 12.2851 131.962 12.5961C131.674 12.9071 131.274 13.0913 130.85 13.1083H121.698C121.27 13.0871 120.868 12.8987 120.578 12.5837C120.288 12.2687 120.134 11.8523 120.149 11.4245V10.9638C120.141 10.7532 120.175 10.5432 120.249 10.3459C120.323 10.1486 120.435 9.96778 120.579 9.81394C120.723 9.6601 120.896 9.53626 121.088 9.44953C121.28 9.3628 121.487 9.31491 121.698 9.30859H130.85C131.273 9.32558 131.672 9.50917 131.96 9.81929C132.248 10.1294 132.402 10.5409 132.387 10.9638Z" fill="#FFEE93" stroke="white" stroke-width="2" stroke-miterlimit="10"/>
<path d="M29.0866 6.50739L29.425 6.84985C29.5797 6.99355 29.7045 7.16642 29.7922 7.35851C29.8799 7.5506 29.9287 7.75813 29.9359 7.96916C29.9431 8.18019 29.9085 8.39056 29.8341 8.58818C29.7597 8.7858 29.647 8.96677 29.5025 9.12068L23.0406 15.5622C22.7255 15.8449 22.3129 15.994 21.8899 15.9781C21.4669 15.9621 21.0667 15.7822 20.7738 15.4766L20.4477 15.1504C20.2921 15.0069 20.1665 14.834 20.0781 14.6417C19.9897 14.4494 19.9403 14.2415 19.9327 14.03C19.9251 13.8184 19.9595 13.6075 20.0339 13.4094C20.1083 13.2112 20.2212 13.0298 20.3661 12.8755L26.8158 6.4177C26.9702 6.2734 27.1518 6.16117 27.3499 6.08751C27.548 6.01384 27.7587 5.98021 27.9699 5.98855C28.1811 5.99689 28.3886 6.04704 28.5803 6.1361C28.7719 6.22516 28.9441 6.35136 29.0866 6.50739Z" fill="#7CE0AE" stroke="white" stroke-width="2" stroke-miterlimit="10"/>
</svg>
